<mxfile host="www.draw.io" modified="2019-12-11T07:55:49.289Z" agent="Mozilla/5.0 (Windows NT 6.1; Win64; x64) AppleWebKit/537.36 (KHTML, like Gecko) Chrome/77.0.3865.120 Safari/537.36" etag="0_J6mQk7rJz710oozK-9" version="12.3.9" type="github" pages="1">
  <diagram id="S2aJ-UnXylgGQd3Q3xxX" name="第 1 页">
    <mxGraphModel dx="1038" dy="568" grid="1" gridSize="10" guides="1" tooltips="1" connect="1" arrows="1" fold="1" page="1" pageScale="1" pageWidth="1200" pageHeight="1920" math="0" shadow="0">
      <root>
        <mxCell id="0"/>
        <mxCell id="1" parent="0"/>
        <mxCell id="p-tltdkEszSo-0zm12PA-62" value="" style="rounded=0;whiteSpace=wrap;html=1;fillColor=#FFFFFF;fontColor=#FFFFFF;dashed=1;" parent="1" vertex="1">
          <mxGeometry x="286" y="720" width="30" height="80" as="geometry"/>
        </mxCell>
        <mxCell id="p-tltdkEszSo-0zm12PA-70" value="" style="rounded=0;whiteSpace=wrap;html=1;fillColor=#FFFFFF;fontColor=#FFFFFF;dashed=1;" parent="1" vertex="1">
          <mxGeometry x="421" y="720" width="30" height="80" as="geometry"/>
        </mxCell>
        <mxCell id="p-tltdkEszSo-0zm12PA-76" value="" style="rounded=0;whiteSpace=wrap;html=1;fillColor=#FFFFFF;fontColor=#FFFFFF;dashed=1;" parent="1" vertex="1">
          <mxGeometry x="571" y="724.5" width="30" height="80" as="geometry"/>
        </mxCell>
        <mxCell id="p-tltdkEszSo-0zm12PA-84" value="" style="rounded=0;whiteSpace=wrap;html=1;fillColor=#FFFFFF;fontColor=#FFFFFF;dashed=1;" parent="1" vertex="1">
          <mxGeometry x="816" y="719.5" width="30" height="80" as="geometry"/>
        </mxCell>
        <mxCell id="p-tltdkEszSo-0zm12PA-12" value="" style="rounded=0;whiteSpace=wrap;html=1;dashed=1;" parent="1" vertex="1">
          <mxGeometry x="250" y="428" width="21" height="84" as="geometry"/>
        </mxCell>
        <mxCell id="p-tltdkEszSo-0zm12PA-13" value="" style="endArrow=none;html=1;strokeWidth=4;" parent="1" edge="1">
          <mxGeometry width="50" height="50" relative="1" as="geometry">
            <mxPoint x="257" y="506" as="sourcePoint"/>
            <mxPoint x="257" y="436" as="targetPoint"/>
          </mxGeometry>
        </mxCell>
        <mxCell id="p-tltdkEszSo-0zm12PA-14" value="" style="endArrow=none;html=1;strokeWidth=4;" parent="1" edge="1">
          <mxGeometry width="50" height="50" relative="1" as="geometry">
            <mxPoint x="264" y="506" as="sourcePoint"/>
            <mxPoint x="264" y="436" as="targetPoint"/>
          </mxGeometry>
        </mxCell>
        <mxCell id="p-tltdkEszSo-0zm12PA-7" value="implements" style="rounded=0;orthogonalLoop=1;jettySize=auto;html=1;entryX=1;entryY=1;entryDx=0;entryDy=0;dashed=1;" parent="1" source="p-tltdkEszSo-0zm12PA-1" target="p-tltdkEszSo-0zm12PA-6" edge="1">
          <mxGeometry relative="1" as="geometry"/>
        </mxCell>
        <mxCell id="p-tltdkEszSo-0zm12PA-34" value="" style="edgeStyle=orthogonalEdgeStyle;curved=1;rounded=0;orthogonalLoop=1;jettySize=auto;html=1;startArrow=none;startFill=0;endArrow=classic;endFill=1;strokeWidth=1;fontColor=#FFFFFF;" parent="1" source="p-tltdkEszSo-0zm12PA-1" edge="1">
          <mxGeometry relative="1" as="geometry">
            <mxPoint x="530" y="470" as="targetPoint"/>
          </mxGeometry>
        </mxCell>
        <mxCell id="p-tltdkEszSo-0zm12PA-1" value="XxxServiceImpl" style="rounded=1;whiteSpace=wrap;html=1;" parent="1" vertex="1">
          <mxGeometry x="330" y="440" width="120" height="60" as="geometry"/>
        </mxCell>
        <mxCell id="p-tltdkEszSo-0zm12PA-24" style="edgeStyle=orthogonalEdgeStyle;curved=1;rounded=0;orthogonalLoop=1;jettySize=auto;html=1;entryX=0;entryY=0.5;entryDx=0;entryDy=0;startArrow=none;startFill=0;endArrow=classic;endFill=1;strokeWidth=1;exitX=0.014;exitY=0.374;exitDx=0;exitDy=0;exitPerimeter=0;" parent="1" source="p-tltdkEszSo-0zm12PA-6" target="p-tltdkEszSo-0zm12PA-8" edge="1">
          <mxGeometry relative="1" as="geometry">
            <Array as="points">
              <mxPoint x="100" y="300"/>
              <mxPoint x="100" y="470"/>
            </Array>
          </mxGeometry>
        </mxCell>
        <mxCell id="p-tltdkEszSo-0zm12PA-6" value="XxxService" style="ellipse;whiteSpace=wrap;html=1;" parent="1" vertex="1">
          <mxGeometry x="220" y="270" width="120" height="80" as="geometry"/>
        </mxCell>
        <mxCell id="p-tltdkEszSo-0zm12PA-9" value="" style="edgeStyle=none;rounded=0;orthogonalLoop=1;jettySize=auto;html=1;entryX=0;entryY=0.5;entryDx=0;entryDy=0;" parent="1" source="p-tltdkEszSo-0zm12PA-8" target="p-tltdkEszSo-0zm12PA-1" edge="1">
          <mxGeometry x="0.4" relative="1" as="geometry">
            <mxPoint as="offset"/>
          </mxGeometry>
        </mxCell>
        <mxCell id="p-tltdkEszSo-0zm12PA-22" style="edgeStyle=orthogonalEdgeStyle;curved=1;rounded=0;orthogonalLoop=1;jettySize=auto;html=1;entryX=0;entryY=0.5;entryDx=0;entryDy=0;startArrow=none;startFill=0;endArrow=classic;endFill=1;strokeWidth=1;dashed=1;" parent="1" source="p-tltdkEszSo-0zm12PA-8" target="p-tltdkEszSo-0zm12PA-6" edge="1">
          <mxGeometry relative="1" as="geometry"/>
        </mxCell>
        <mxCell id="p-tltdkEszSo-0zm12PA-23" value="implements" style="text;html=1;align=center;verticalAlign=middle;resizable=0;points=[];;labelBackgroundColor=#ffffff;" parent="p-tltdkEszSo-0zm12PA-22" vertex="1" connectable="0">
          <mxGeometry x="0.0297" y="-7" relative="1" as="geometry">
            <mxPoint as="offset"/>
          </mxGeometry>
        </mxCell>
        <mxCell id="p-tltdkEszSo-0zm12PA-8" value="$Proxy35" style="rounded=1;whiteSpace=wrap;html=1;" parent="1" vertex="1">
          <mxGeometry x="140" y="440" width="90" height="60" as="geometry"/>
        </mxCell>
        <mxCell id="p-tltdkEszSo-0zm12PA-19" value="DI" style="endArrow=none;html=1;strokeWidth=1;entryX=0.25;entryY=1;entryDx=0;entryDy=0;edgeStyle=orthogonalEdgeStyle;curved=1;startArrow=classic;startFill=1;endFill=0;" parent="1" source="p-tltdkEszSo-0zm12PA-8" target="p-tltdkEszSo-0zm12PA-1" edge="1">
          <mxGeometry width="50" height="50" relative="1" as="geometry">
            <mxPoint x="210" y="500" as="sourcePoint"/>
            <mxPoint x="260" y="390" as="targetPoint"/>
            <Array as="points">
              <mxPoint x="210" y="540"/>
              <mxPoint x="360" y="540"/>
            </Array>
          </mxGeometry>
        </mxCell>
        <mxCell id="p-tltdkEszSo-0zm12PA-21" value="compose&lt;br&gt;has a" style="endArrow=classic;html=1;strokeWidth=1;entryX=0.258;entryY=0.947;entryDx=0;entryDy=0;entryPerimeter=0;" parent="1" target="p-tltdkEszSo-0zm12PA-6" edge="1">
          <mxGeometry width="50" height="50" relative="1" as="geometry">
            <mxPoint x="210" y="440" as="sourcePoint"/>
            <mxPoint x="260" y="390" as="targetPoint"/>
          </mxGeometry>
        </mxCell>
        <mxCell id="p-tltdkEszSo-0zm12PA-25" value="" style="endArrow=classic;html=1;strokeWidth=1;entryX=0.5;entryY=0;entryDx=0;entryDy=0;edgeStyle=orthogonalEdgeStyle;curved=1;" parent="1" target="p-tltdkEszSo-0zm12PA-6" edge="1">
          <mxGeometry width="50" height="50" relative="1" as="geometry">
            <mxPoint x="100" y="200" as="sourcePoint"/>
            <mxPoint x="120" y="230" as="targetPoint"/>
          </mxGeometry>
        </mxCell>
        <mxCell id="p-tltdkEszSo-0zm12PA-26" value="1" style="ellipse;whiteSpace=wrap;html=1;aspect=fixed;fillColor=#000000;fontColor=#FFFFFF;" parent="1" vertex="1">
          <mxGeometry x="200" y="180" width="20" height="20" as="geometry"/>
        </mxCell>
        <mxCell id="p-tltdkEszSo-0zm12PA-28" value="2" style="ellipse;whiteSpace=wrap;html=1;aspect=fixed;fillColor=#000000;fontColor=#FFFFFF;" parent="1" vertex="1">
          <mxGeometry x="120" y="290" width="20" height="20" as="geometry"/>
        </mxCell>
        <mxCell id="p-tltdkEszSo-0zm12PA-29" value="3" style="ellipse;whiteSpace=wrap;html=1;aspect=fixed;fillColor=#000000;fontColor=#FFFFFF;" parent="1" vertex="1">
          <mxGeometry x="280" y="486" width="20" height="20" as="geometry"/>
        </mxCell>
        <mxCell id="p-tltdkEszSo-0zm12PA-30" value="4" style="ellipse;whiteSpace=wrap;html=1;aspect=fixed;fillColor=#000000;fontColor=#FFFFFF;" parent="1" vertex="1">
          <mxGeometry x="390" y="512" width="20" height="20" as="geometry"/>
        </mxCell>
        <mxCell id="p-tltdkEszSo-0zm12PA-35" value="5" style="ellipse;whiteSpace=wrap;html=1;aspect=fixed;fillColor=#000000;fontColor=#FFFFFF;" parent="1" vertex="1">
          <mxGeometry x="480" y="440" width="20" height="20" as="geometry"/>
        </mxCell>
        <mxCell id="p-tltdkEszSo-0zm12PA-37" value="" style="rounded=0;whiteSpace=wrap;html=1;dashed=1;" parent="1" vertex="1">
          <mxGeometry x="820" y="448" width="21" height="84" as="geometry"/>
        </mxCell>
        <mxCell id="p-tltdkEszSo-0zm12PA-38" value="" style="endArrow=none;html=1;strokeWidth=4;" parent="1" edge="1">
          <mxGeometry width="50" height="50" relative="1" as="geometry">
            <mxPoint x="827" y="526" as="sourcePoint"/>
            <mxPoint x="827" y="456" as="targetPoint"/>
          </mxGeometry>
        </mxCell>
        <mxCell id="p-tltdkEszSo-0zm12PA-39" value="" style="endArrow=none;html=1;strokeWidth=4;" parent="1" edge="1">
          <mxGeometry width="50" height="50" relative="1" as="geometry">
            <mxPoint x="834" y="526" as="sourcePoint"/>
            <mxPoint x="834" y="456" as="targetPoint"/>
          </mxGeometry>
        </mxCell>
        <mxCell id="p-tltdkEszSo-0zm12PA-40" value="implements" style="rounded=0;orthogonalLoop=1;jettySize=auto;html=1;entryX=1;entryY=1;entryDx=0;entryDy=0;dashed=1;" parent="1" source="p-tltdkEszSo-0zm12PA-42" target="p-tltdkEszSo-0zm12PA-44" edge="1">
          <mxGeometry relative="1" as="geometry"/>
        </mxCell>
        <mxCell id="p-tltdkEszSo-0zm12PA-41" value="" style="edgeStyle=orthogonalEdgeStyle;curved=1;rounded=0;orthogonalLoop=1;jettySize=auto;html=1;startArrow=none;startFill=0;endArrow=classic;endFill=1;strokeWidth=1;fontColor=#FFFFFF;" parent="1" source="p-tltdkEszSo-0zm12PA-42" edge="1">
          <mxGeometry relative="1" as="geometry">
            <mxPoint x="1100" y="490" as="targetPoint"/>
          </mxGeometry>
        </mxCell>
        <mxCell id="p-tltdkEszSo-0zm12PA-42" value="XxxServiceImpl" style="rounded=1;whiteSpace=wrap;html=1;" parent="1" vertex="1">
          <mxGeometry x="900" y="460" width="120" height="60" as="geometry"/>
        </mxCell>
        <mxCell id="p-tltdkEszSo-0zm12PA-43" style="edgeStyle=orthogonalEdgeStyle;curved=1;rounded=0;orthogonalLoop=1;jettySize=auto;html=1;entryX=0;entryY=0.5;entryDx=0;entryDy=0;startArrow=none;startFill=0;endArrow=classic;endFill=1;strokeWidth=1;exitX=0.014;exitY=0.374;exitDx=0;exitDy=0;exitPerimeter=0;" parent="1" source="p-tltdkEszSo-0zm12PA-44" target="p-tltdkEszSo-0zm12PA-48" edge="1">
          <mxGeometry relative="1" as="geometry">
            <Array as="points">
              <mxPoint x="670" y="320"/>
              <mxPoint x="670" y="490"/>
            </Array>
          </mxGeometry>
        </mxCell>
        <mxCell id="p-tltdkEszSo-0zm12PA-44" value="XxxService" style="ellipse;whiteSpace=wrap;html=1;" parent="1" vertex="1">
          <mxGeometry x="790" y="290" width="120" height="80" as="geometry"/>
        </mxCell>
        <mxCell id="p-tltdkEszSo-0zm12PA-45" value="" style="edgeStyle=none;rounded=0;orthogonalLoop=1;jettySize=auto;html=1;entryX=0;entryY=0.5;entryDx=0;entryDy=0;" parent="1" source="p-tltdkEszSo-0zm12PA-48" target="p-tltdkEszSo-0zm12PA-42" edge="1">
          <mxGeometry x="0.4" relative="1" as="geometry">
            <mxPoint as="offset"/>
          </mxGeometry>
        </mxCell>
        <mxCell id="p-tltdkEszSo-0zm12PA-46" style="edgeStyle=orthogonalEdgeStyle;curved=1;rounded=0;orthogonalLoop=1;jettySize=auto;html=1;entryX=0.25;entryY=0;entryDx=0;entryDy=0;startArrow=none;startFill=0;endArrow=classic;endFill=1;strokeWidth=1;exitX=0.5;exitY=0;exitDx=0;exitDy=0;" parent="1" source="p-tltdkEszSo-0zm12PA-48" target="p-tltdkEszSo-0zm12PA-42" edge="1">
          <mxGeometry relative="1" as="geometry">
            <Array as="points">
              <mxPoint x="755" y="420"/>
              <mxPoint x="930" y="420"/>
            </Array>
          </mxGeometry>
        </mxCell>
        <mxCell id="p-tltdkEszSo-0zm12PA-47" value="extends" style="text;html=1;align=center;verticalAlign=middle;resizable=0;points=[];;labelBackgroundColor=#ffffff;" parent="p-tltdkEszSo-0zm12PA-46" vertex="1" connectable="0">
          <mxGeometry x="0.0297" y="-7" relative="1" as="geometry">
            <mxPoint x="4.5" y="-9" as="offset"/>
          </mxGeometry>
        </mxCell>
        <mxCell id="p-tltdkEszSo-0zm12PA-57" value="&lt;font color=&quot;#000000&quot;&gt;is a&lt;/font&gt;" style="text;html=1;align=center;verticalAlign=middle;resizable=0;points=[];;labelBackgroundColor=#ffffff;fontColor=#FFFFFF;" parent="p-tltdkEszSo-0zm12PA-46" vertex="1" connectable="0">
          <mxGeometry x="-0.7512" y="-23" relative="1" as="geometry">
            <mxPoint as="offset"/>
          </mxGeometry>
        </mxCell>
        <mxCell id="p-tltdkEszSo-0zm12PA-48" value="CGBLIBProxy" style="rounded=1;whiteSpace=wrap;html=1;" parent="1" vertex="1">
          <mxGeometry x="710" y="460" width="90" height="60" as="geometry"/>
        </mxCell>
        <mxCell id="p-tltdkEszSo-0zm12PA-51" value="" style="endArrow=classic;html=1;strokeWidth=1;entryX=0.5;entryY=0;entryDx=0;entryDy=0;edgeStyle=orthogonalEdgeStyle;curved=1;" parent="1" target="p-tltdkEszSo-0zm12PA-44" edge="1">
          <mxGeometry width="50" height="50" relative="1" as="geometry">
            <mxPoint x="670" y="220" as="sourcePoint"/>
            <mxPoint x="690" y="250" as="targetPoint"/>
          </mxGeometry>
        </mxCell>
        <mxCell id="p-tltdkEszSo-0zm12PA-52" value="1" style="ellipse;whiteSpace=wrap;html=1;aspect=fixed;fillColor=#000000;fontColor=#FFFFFF;" parent="1" vertex="1">
          <mxGeometry x="770" y="200" width="20" height="20" as="geometry"/>
        </mxCell>
        <mxCell id="p-tltdkEszSo-0zm12PA-53" value="2" style="ellipse;whiteSpace=wrap;html=1;aspect=fixed;fillColor=#000000;fontColor=#FFFFFF;" parent="1" vertex="1">
          <mxGeometry x="690" y="310" width="20" height="20" as="geometry"/>
        </mxCell>
        <mxCell id="p-tltdkEszSo-0zm12PA-54" value="3" style="ellipse;whiteSpace=wrap;html=1;aspect=fixed;fillColor=#000000;fontColor=#FFFFFF;" parent="1" vertex="1">
          <mxGeometry x="850" y="506" width="20" height="20" as="geometry"/>
        </mxCell>
        <mxCell id="p-tltdkEszSo-0zm12PA-55" value="4" style="ellipse;whiteSpace=wrap;html=1;aspect=fixed;fillColor=#000000;fontColor=#FFFFFF;" parent="1" vertex="1">
          <mxGeometry x="960" y="532" width="20" height="20" as="geometry"/>
        </mxCell>
        <mxCell id="p-tltdkEszSo-0zm12PA-56" value="5" style="ellipse;whiteSpace=wrap;html=1;aspect=fixed;fillColor=#000000;fontColor=#FFFFFF;" parent="1" vertex="1">
          <mxGeometry x="1050" y="460" width="20" height="20" as="geometry"/>
        </mxCell>
        <mxCell id="p-tltdkEszSo-0zm12PA-59" value="" style="endArrow=classic;html=1;strokeWidth=1;fontColor=#FFFFFF;" parent="1" edge="1">
          <mxGeometry width="50" height="50" relative="1" as="geometry">
            <mxPoint x="256" y="759" as="sourcePoint"/>
            <mxPoint x="871" y="759.5" as="targetPoint"/>
          </mxGeometry>
        </mxCell>
        <mxCell id="p-tltdkEszSo-0zm12PA-63" value="Text" style="text;html=1;align=center;verticalAlign=middle;resizable=0;points=[];;autosize=1;fontColor=#FFFFFF;" parent="1" vertex="1">
          <mxGeometry x="543" y="1013" width="40" height="20" as="geometry"/>
        </mxCell>
        <mxCell id="p-tltdkEszSo-0zm12PA-65" value="" style="endArrow=none;html=1;strokeWidth=4;fontColor=#FFFFFF;" parent="1" edge="1">
          <mxGeometry width="50" height="50" relative="1" as="geometry">
            <mxPoint x="296" y="790" as="sourcePoint"/>
            <mxPoint x="296" y="730" as="targetPoint"/>
          </mxGeometry>
        </mxCell>
        <mxCell id="p-tltdkEszSo-0zm12PA-66" value="" style="endArrow=none;html=1;strokeWidth=4;fontColor=#FFFFFF;" parent="1" edge="1">
          <mxGeometry width="50" height="50" relative="1" as="geometry">
            <mxPoint x="306" y="790" as="sourcePoint"/>
            <mxPoint x="306" y="730" as="targetPoint"/>
          </mxGeometry>
        </mxCell>
        <mxCell id="p-tltdkEszSo-0zm12PA-68" value="Filters" style="text;html=1;align=center;verticalAlign=middle;resizable=0;points=[];;autosize=1;fontColor=#000000;" parent="1" vertex="1">
          <mxGeometry x="276" y="700" width="50" height="20" as="geometry"/>
        </mxCell>
        <mxCell id="p-tltdkEszSo-0zm12PA-69" value="Servlet" style="ellipse;whiteSpace=wrap;html=1;aspect=fixed;fillColor=#FFFFFF;fontColor=#000000;rotation=45;" parent="1" vertex="1">
          <mxGeometry x="331" y="725" width="70" height="70" as="geometry"/>
        </mxCell>
        <mxCell id="p-tltdkEszSo-0zm12PA-71" value="" style="endArrow=none;html=1;strokeWidth=4;fontColor=#FFFFFF;" parent="1" edge="1">
          <mxGeometry width="50" height="50" relative="1" as="geometry">
            <mxPoint x="431" y="790" as="sourcePoint"/>
            <mxPoint x="431" y="730" as="targetPoint"/>
          </mxGeometry>
        </mxCell>
        <mxCell id="p-tltdkEszSo-0zm12PA-72" value="" style="endArrow=none;html=1;strokeWidth=4;fontColor=#FFFFFF;" parent="1" edge="1">
          <mxGeometry width="50" height="50" relative="1" as="geometry">
            <mxPoint x="441" y="790" as="sourcePoint"/>
            <mxPoint x="441" y="730" as="targetPoint"/>
          </mxGeometry>
        </mxCell>
        <mxCell id="p-tltdkEszSo-0zm12PA-74" value="HandlerInterceptors" style="text;html=1;align=center;verticalAlign=middle;resizable=0;points=[];;autosize=1;fontColor=#000000;" parent="1" vertex="1">
          <mxGeometry x="376" y="800" width="120" height="20" as="geometry"/>
        </mxCell>
        <mxCell id="p-tltdkEszSo-0zm12PA-75" value="&lt;font style=&quot;font-size: 10px&quot;&gt;XxxCotroller&lt;/font&gt;" style="ellipse;whiteSpace=wrap;html=1;aspect=fixed;fillColor=#FFFFFF;fontColor=#000000;rotation=45;fontSize=11;" parent="1" vertex="1">
          <mxGeometry x="468.5" y="717.5" width="85" height="85" as="geometry"/>
        </mxCell>
        <mxCell id="p-tltdkEszSo-0zm12PA-77" value="" style="endArrow=none;html=1;strokeWidth=4;fontColor=#FFFFFF;" parent="1" edge="1">
          <mxGeometry width="50" height="50" relative="1" as="geometry">
            <mxPoint x="581" y="794.5" as="sourcePoint"/>
            <mxPoint x="581" y="734.5" as="targetPoint"/>
          </mxGeometry>
        </mxCell>
        <mxCell id="p-tltdkEszSo-0zm12PA-78" value="" style="endArrow=none;html=1;strokeWidth=4;fontColor=#FFFFFF;" parent="1" edge="1">
          <mxGeometry width="50" height="50" relative="1" as="geometry">
            <mxPoint x="591" y="794.5" as="sourcePoint"/>
            <mxPoint x="591" y="734.5" as="targetPoint"/>
          </mxGeometry>
        </mxCell>
        <mxCell id="p-tltdkEszSo-0zm12PA-79" value="MethodIntercetor&lt;br&gt;(Aspect)" style="text;html=1;align=center;verticalAlign=middle;resizable=0;points=[];;autosize=1;fontColor=#000000;" parent="1" vertex="1">
          <mxGeometry x="531" y="690" width="110" height="30" as="geometry"/>
        </mxCell>
        <mxCell id="p-tltdkEszSo-0zm12PA-80" value="&lt;font style=&quot;font-size: 10px&quot;&gt;XxxService&lt;/font&gt;" style="ellipse;whiteSpace=wrap;html=1;aspect=fixed;fillColor=#FFFFFF;fontColor=#000000;rotation=45;fontSize=11;" parent="1" vertex="1">
          <mxGeometry x="626" y="724.5" width="70" height="70" as="geometry"/>
        </mxCell>
        <mxCell id="p-tltdkEszSo-0zm12PA-83" value="&lt;span style=&quot;font-size: 10px&quot;&gt;XxxDao&lt;/span&gt;" style="ellipse;whiteSpace=wrap;html=1;aspect=fixed;fillColor=#FFFFFF;fontColor=#000000;rotation=45;fontSize=11;" parent="1" vertex="1">
          <mxGeometry x="721" y="720" width="70" height="70" as="geometry"/>
        </mxCell>
        <mxCell id="p-tltdkEszSo-0zm12PA-85" value="" style="endArrow=none;html=1;strokeWidth=4;fontColor=#FFFFFF;" parent="1" edge="1">
          <mxGeometry width="50" height="50" relative="1" as="geometry">
            <mxPoint x="826" y="789.5" as="sourcePoint"/>
            <mxPoint x="826" y="729.5" as="targetPoint"/>
          </mxGeometry>
        </mxCell>
        <mxCell id="p-tltdkEszSo-0zm12PA-86" value="" style="endArrow=none;html=1;strokeWidth=4;fontColor=#FFFFFF;" parent="1" edge="1">
          <mxGeometry width="50" height="50" relative="1" as="geometry">
            <mxPoint x="836" y="789.5" as="sourcePoint"/>
            <mxPoint x="836" y="729.5" as="targetPoint"/>
          </mxGeometry>
        </mxCell>
        <mxCell id="p-tltdkEszSo-0zm12PA-87" value="Interceptors" style="text;html=1;align=center;verticalAlign=middle;resizable=0;points=[];;autosize=1;fontColor=#000000;" parent="1" vertex="1">
          <mxGeometry x="791" y="800" width="80" height="20" as="geometry"/>
        </mxCell>
        <mxCell id="p-tltdkEszSo-0zm12PA-88" value="DB" style="shape=cylinder;whiteSpace=wrap;html=1;boundedLbl=1;backgroundOutline=1;fillColor=#FFFFFF;fontSize=11;fontColor=#000000;" parent="1" vertex="1">
          <mxGeometry x="881" y="720" width="60" height="80" as="geometry"/>
        </mxCell>
      </root>
    </mxGraphModel>
  </diagram>
</mxfile>
